<?xml version="1.0" encoding="utf-8" standalone="no"?>
<!DOCTYPE svg PUBLIC "-//W3C//DTD SVG 1.1//EN"
  "http://www.w3.org/Graphics/SVG/1.1/DTD/svg11.dtd">
<svg xmlns:xlink="http://www.w3.org/1999/xlink" width="424.785pt" height="294.303776pt" viewBox="0 0 424.785 294.303776" xmlns="http://www.w3.org/2000/svg" version="1.1">
 <metadata>
  <rdf:RDF xmlns:dc="http://purl.org/dc/elements/1.1/" xmlns:cc="http://creativecommons.org/ns#" xmlns:rdf="http://www.w3.org/1999/02/22-rdf-syntax-ns#">
   <cc:Work>
    <dc:type rdf:resource="http://purl.org/dc/dcmitype/StillImage"/>
    <dc:date>2025-08-27T20:11:26.626951</dc:date>
    <dc:format>image/svg+xml</dc:format>
    <dc:creator>
     <cc:Agent>
      <dc:title>Matplotlib v3.10.5, https://matplotlib.org/</dc:title>
     </cc:Agent>
    </dc:creator>
   </cc:Work>
  </rdf:RDF>
 </metadata>
 <defs>
  <style type="text/css">*{stroke-linejoin: round; stroke-linecap: butt}</style>
 </defs>
 <g id="figure_1">
  <g id="patch_1">
   <path d="M 0 294.303776 
L 424.785 294.303776 
L 424.785 0 
L 0 0 
z
" style="fill: #ffffff"/>
  </g>
  <g id="axes_1">
   <g id="patch_2">
    <path d="M 26.685 267.618776 
L 417.585 267.618776 
L 417.585 7.2 
L 26.685 7.2 
z
" style="fill: #ffffff"/>
   </g>
   <g id="PathCollection_1">
    <defs>
     <path id="m7296d65898" d="M 0 4.472136 
C 1.186024 4.472136 2.323632 4.000923 3.162278 3.162278 
C 4.000923 2.323632 4.472136 1.186024 4.472136 0 
C 4.472136 -1.186024 4.000923 -2.323632 3.162278 -3.162278 
C 2.323632 -4.000923 1.186024 -4.472136 0 -4.472136 
C -1.186024 -4.472136 -2.323632 -4.000923 -3.162278 -3.162278 
C -4.000923 -2.323632 -4.472136 -1.186024 -4.472136 0 
C -4.472136 1.186024 -4.000923 2.323632 -3.162278 3.162278 
C -2.323632 4.000923 -1.186024 4.472136 0 4.472136 
z
" style="stroke: #ffffff"/>
    </defs>
    <g clip-path="url(#pdf47171183)">
     <use xlink:href="#m7296d65898" x="212.077072" y="142.030598" style="fill: #4169e1; stroke: #ffffff"/>
     <use xlink:href="#m7296d65898" x="210.989729" y="140.943255" style="fill: #4169e1; stroke: #ffffff"/>
     <use xlink:href="#m7296d65898" x="183.262469" y="138.224896" style="fill: #4169e1; stroke: #ffffff"/>
     <use xlink:href="#m7296d65898" x="258.832844" y="129.526147" style="fill: #4169e1; stroke: #ffffff"/>
     <use xlink:href="#m7296d65898" x="187.068171" y="137.681224" style="fill: #4169e1; stroke: #ffffff"/>
     <use xlink:href="#m7296d65898" x="249.046752" y="142.030598" style="fill: #4169e1; stroke: #ffffff"/>
     <use xlink:href="#m7296d65898" x="251.765111" y="144.205285" style="fill: #4169e1; stroke: #ffffff"/>
     <use xlink:href="#m7296d65898" x="265.356905" y="124.633102" style="fill: #4169e1; stroke: #ffffff"/>
     <use xlink:href="#m7296d65898" x="269.162608" y="130.613491" style="fill: #4169e1; stroke: #ffffff"/>
     <use xlink:href="#m7296d65898" x="187.611843" y="143.117942" style="fill: #4169e1; stroke: #ffffff"/>
     <use xlink:href="#m7296d65898" x="187.068171" y="143.117942" style="fill: #4169e1; stroke: #ffffff"/>
     <use xlink:href="#m7296d65898" x="243.066363" y="149.098331" style="fill: #4169e1; stroke: #ffffff"/>
     <use xlink:href="#m7296d65898" x="269.162608" y="133.33185" style="fill: #4169e1; stroke: #ffffff"/>
     <use xlink:href="#m7296d65898" x="256.658157" y="142.030598" style="fill: #4169e1; stroke: #ffffff"/>
     <use xlink:href="#m7296d65898" x="215.339103" y="148.554659" style="fill: #4169e1; stroke: #ffffff"/>
     <use xlink:href="#m7296d65898" x="266.987921" y="136.050209" style="fill: #4169e1; stroke: #ffffff"/>
     <use xlink:href="#m7296d65898" x="253.396127" y="152.360362" style="fill: #4169e1; stroke: #ffffff"/>
     <use xlink:href="#m7296d65898" x="246.328394" y="150.185675" style="fill: #4169e1; stroke: #ffffff"/>
     <use xlink:href="#m7296d65898" x="256.114485" y="140.943255" style="fill: #4169e1; stroke: #ffffff"/>
     <use xlink:href="#m7296d65898" x="263.72589" y="128.438804" style="fill: #4169e1; stroke: #ffffff"/>
     <use xlink:href="#m7296d65898" x="218.601134" y="148.010987" style="fill: #4169e1; stroke: #ffffff"/>
     <use xlink:href="#m7296d65898" x="253.396127" y="148.554659" style="fill: #4169e1; stroke: #ffffff"/>
     <use xlink:href="#m7296d65898" x="190.330202" y="143.661613" style="fill: #4169e1; stroke: #ffffff"/>
     <use xlink:href="#m7296d65898" x="226.212538" y="145.292629" style="fill: #4169e1; stroke: #ffffff"/>
     <use xlink:href="#m7296d65898" x="274.599325" y="131.700834" style="fill: #4169e1; stroke: #ffffff"/>
     <use xlink:href="#m7296d65898" x="265.900577" y="136.59388" style="fill: #4169e1; stroke: #ffffff"/>
     <use xlink:href="#m7296d65898" x="272.96831" y="132.244506" style="fill: #4169e1; stroke: #ffffff"/>
     <use xlink:href="#m7296d65898" x="276.230341" y="131.700834" style="fill: #4169e1; stroke: #ffffff"/>
     <use xlink:href="#m7296d65898" x="261.007531" y="145.292629" style="fill: #4169e1; stroke: #ffffff"/>
     <use xlink:href="#m7296d65898" x="258.289172" y="147.467316" style="fill: #4169e1; stroke: #ffffff"/>
     <use xlink:href="#m7296d65898" x="270.249951" y="126.807789" style="fill: #4169e1; stroke: #ffffff"/>
     <use xlink:href="#m7296d65898" x="257.201829" y="147.467316" style="fill: #4169e1; stroke: #ffffff"/>
     <use xlink:href="#m7296d65898" x="222.406836" y="145.292629" style="fill: #4169e1; stroke: #ffffff"/>
     <use xlink:href="#m7296d65898" x="274.055654" y="133.33185" style="fill: #4169e1; stroke: #ffffff"/>
     <use xlink:href="#m7296d65898" x="256.658157" y="148.554659" style="fill: #4169e1; stroke: #ffffff"/>
     <use xlink:href="#m7296d65898" x="271.880967" y="130.613491" style="fill: #4169e1; stroke: #ffffff"/>
     <use xlink:href="#m7296d65898" x="271.337295" y="131.700834" style="fill: #4169e1; stroke: #ffffff"/>
     <use xlink:href="#m7296d65898" x="265.900577" y="127.35146" style="fill: #4169e1; stroke: #ffffff"/>
     <use xlink:href="#m7296d65898" x="265.356905" y="126.264117" style="fill: #4169e1; stroke: #ffffff"/>
     <use xlink:href="#m7296d65898" x="214.795431" y="144.748957" style="fill: #4169e1; stroke: #ffffff"/>
     <use xlink:href="#m7296d65898" x="266.444249" y="132.244506" style="fill: #4169e1; stroke: #ffffff"/>
     <use xlink:href="#m7296d65898" x="248.503081" y="149.098331" style="fill: #4169e1; stroke: #ffffff"/>
     <use xlink:href="#m7296d65898" x="266.987921" y="132.788178" style="fill: #4169e1; stroke: #ffffff"/>
     <use xlink:href="#m7296d65898" x="268.618936" y="131.700834" style="fill: #4169e1; stroke: #ffffff"/>
     <use xlink:href="#m7296d65898" x="216.970118" y="145.292629" style="fill: #4169e1; stroke: #ffffff"/>
     <use xlink:href="#m7296d65898" x="272.96831" y="130.069819" style="fill: #4169e1; stroke: #ffffff"/>
     <use xlink:href="#m7296d65898" x="272.424638" y="129.526147" style="fill: #4169e1; stroke: #ffffff"/>
     <use xlink:href="#m7296d65898" x="271.337295" y="129.526147" style="fill: #4169e1; stroke: #ffffff"/>
     <use xlink:href="#m7296d65898" x="221.863164" y="144.748957" style="fill: #4169e1; stroke: #ffffff"/>
    </g>
   </g>
   <g id="matplotlib.axis_1">
    <g id="xtick_1">
     <g id="line2d_1">
      <defs>
       <path id="m33cdf0fec1" d="M 0 0 
L 0 -6 
" style="stroke: #000000; stroke-width: 2"/>
      </defs>
      <g>
       <use xlink:href="#m33cdf0fec1" x="26.685" y="267.618776" style="stroke: #000000; stroke-width: 2"/>
      </g>
     </g>
    </g>
    <g id="xtick_2">
     <g id="line2d_2">
      <g>
       <use xlink:href="#m33cdf0fec1" x="81.052177" y="267.618776" style="stroke: #000000; stroke-width: 2"/>
      </g>
     </g>
    </g>
    <g id="xtick_3">
     <g id="line2d_3">
      <g>
       <use xlink:href="#m33cdf0fec1" x="135.419353" y="267.618776" style="stroke: #000000; stroke-width: 2"/>
      </g>
     </g>
    </g>
    <g id="xtick_4">
     <g id="line2d_4">
      <g>
       <use xlink:href="#m33cdf0fec1" x="189.78653" y="267.618776" style="stroke: #000000; stroke-width: 2"/>
      </g>
     </g>
    </g>
    <g id="xtick_5">
     <g id="line2d_5">
      <g>
       <use xlink:href="#m33cdf0fec1" x="244.153707" y="267.618776" style="stroke: #000000; stroke-width: 2"/>
      </g>
     </g>
    </g>
    <g id="xtick_6">
     <g id="line2d_6">
      <g>
       <use xlink:href="#m33cdf0fec1" x="298.520883" y="267.618776" style="stroke: #000000; stroke-width: 2"/>
      </g>
     </g>
    </g>
    <g id="xtick_7">
     <g id="line2d_7">
      <g>
       <use xlink:href="#m33cdf0fec1" x="352.88806" y="267.618776" style="stroke: #000000; stroke-width: 2"/>
      </g>
     </g>
    </g>
    <g id="xtick_8">
     <g id="line2d_8">
      <g>
       <use xlink:href="#m33cdf0fec1" x="407.255236" y="267.618776" style="stroke: #000000; stroke-width: 2"/>
      </g>
     </g>
    </g>
    <g id="text_1">
     <!-- x (pixels) -->
     <g transform="translate(185.51625 283.776276) scale(0.16 -0.16)">
      <defs>
       <path id="DejaVuSans-78" d="M 3513 3500 
L 2247 1797 
L 3578 0 
L 2900 0 
L 1881 1375 
L 863 0 
L 184 0 
L 1544 1831 
L 300 3500 
L 978 3500 
L 1906 2253 
L 2834 3500 
L 3513 3500 
z
" transform="scale(0.015625)"/>
       <path id="DejaVuSans-20" transform="scale(0.015625)"/>
       <path id="DejaVuSans-28" d="M 1984 4856 
Q 1566 4138 1362 3434 
Q 1159 2731 1159 2009 
Q 1159 1288 1364 580 
Q 1569 -128 1984 -844 
L 1484 -844 
Q 1016 -109 783 600 
Q 550 1309 550 2009 
Q 550 2706 781 3412 
Q 1013 4119 1484 4856 
L 1984 4856 
z
" transform="scale(0.015625)"/>
       <path id="DejaVuSans-70" d="M 1159 525 
L 1159 -1331 
L 581 -1331 
L 581 3500 
L 1159 3500 
L 1159 2969 
Q 1341 3281 1617 3432 
Q 1894 3584 2278 3584 
Q 2916 3584 3314 3078 
Q 3713 2572 3713 1747 
Q 3713 922 3314 415 
Q 2916 -91 2278 -91 
Q 1894 -91 1617 61 
Q 1341 213 1159 525 
z
M 3116 1747 
Q 3116 2381 2855 2742 
Q 2594 3103 2138 3103 
Q 1681 3103 1420 2742 
Q 1159 2381 1159 1747 
Q 1159 1113 1420 752 
Q 1681 391 2138 391 
Q 2594 391 2855 752 
Q 3116 1113 3116 1747 
z
" transform="scale(0.015625)"/>
       <path id="DejaVuSans-69" d="M 603 3500 
L 1178 3500 
L 1178 0 
L 603 0 
L 603 3500 
z
M 603 4863 
L 1178 4863 
L 1178 4134 
L 603 4134 
L 603 4863 
z
" transform="scale(0.015625)"/>
       <path id="DejaVuSans-65" d="M 3597 1894 
L 3597 1613 
L 953 1613 
Q 991 1019 1311 708 
Q 1631 397 2203 397 
Q 2534 397 2845 478 
Q 3156 559 3463 722 
L 3463 178 
Q 3153 47 2828 -22 
Q 2503 -91 2169 -91 
Q 1331 -91 842 396 
Q 353 884 353 1716 
Q 353 2575 817 3079 
Q 1281 3584 2069 3584 
Q 2775 3584 3186 3129 
Q 3597 2675 3597 1894 
z
M 3022 2063 
Q 3016 2534 2758 2815 
Q 2500 3097 2075 3097 
Q 1594 3097 1305 2825 
Q 1016 2553 972 2059 
L 3022 2063 
z
" transform="scale(0.015625)"/>
       <path id="DejaVuSans-6c" d="M 603 4863 
L 1178 4863 
L 1178 0 
L 603 0 
L 603 4863 
z
" transform="scale(0.015625)"/>
       <path id="DejaVuSans-73" d="M 2834 3397 
L 2834 2853 
Q 2591 2978 2328 3040 
Q 2066 3103 1784 3103 
Q 1356 3103 1142 2972 
Q 928 2841 928 2578 
Q 928 2378 1081 2264 
Q 1234 2150 1697 2047 
L 1894 2003 
Q 2506 1872 2764 1633 
Q 3022 1394 3022 966 
Q 3022 478 2636 193 
Q 2250 -91 1575 -91 
Q 1294 -91 989 -36 
Q 684 19 347 128 
L 347 722 
Q 666 556 975 473 
Q 1284 391 1588 391 
Q 1994 391 2212 530 
Q 2431 669 2431 922 
Q 2431 1156 2273 1281 
Q 2116 1406 1581 1522 
L 1381 1569 
Q 847 1681 609 1914 
Q 372 2147 372 2553 
Q 372 3047 722 3315 
Q 1072 3584 1716 3584 
Q 2034 3584 2315 3537 
Q 2597 3491 2834 3397 
z
" transform="scale(0.015625)"/>
       <path id="DejaVuSans-29" d="M 513 4856 
L 1013 4856 
Q 1481 4119 1714 3412 
Q 1947 2706 1947 2009 
Q 1947 1309 1714 600 
Q 1481 -109 1013 -844 
L 513 -844 
Q 928 -128 1133 580 
Q 1338 1288 1338 2009 
Q 1338 2731 1133 3434 
Q 928 4138 513 4856 
z
" transform="scale(0.015625)"/>
      </defs>
      <use xlink:href="#DejaVuSans-78"/>
      <use xlink:href="#DejaVuSans-20" transform="translate(59.179688 0)"/>
      <use xlink:href="#DejaVuSans-28" transform="translate(90.966797 0)"/>
      <use xlink:href="#DejaVuSans-70" transform="translate(129.980469 0)"/>
      <use xlink:href="#DejaVuSans-69" transform="translate(193.457031 0)"/>
      <use xlink:href="#DejaVuSans-78" transform="translate(221.240234 0)"/>
      <use xlink:href="#DejaVuSans-65" transform="translate(277.294922 0)"/>
      <use xlink:href="#DejaVuSans-6c" transform="translate(338.818359 0)"/>
      <use xlink:href="#DejaVuSans-73" transform="translate(366.601562 0)"/>
      <use xlink:href="#DejaVuSans-29" transform="translate(418.701172 0)"/>
     </g>
    </g>
   </g>
   <g id="matplotlib.axis_2">
    <g id="ytick_1">
     <g id="line2d_9">
      <defs>
       <path id="mba4d15b678" d="M 0 0 
L 6 0 
" style="stroke: #000000; stroke-width: 2"/>
      </defs>
      <g>
       <use xlink:href="#mba4d15b678" x="26.685" y="7.2" style="stroke: #000000; stroke-width: 2"/>
      </g>
     </g>
    </g>
    <g id="ytick_2">
     <g id="line2d_10">
      <g>
       <use xlink:href="#mba4d15b678" x="26.685" y="61.567177" style="stroke: #000000; stroke-width: 2"/>
      </g>
     </g>
    </g>
    <g id="ytick_3">
     <g id="line2d_11">
      <g>
       <use xlink:href="#mba4d15b678" x="26.685" y="115.934353" style="stroke: #000000; stroke-width: 2"/>
      </g>
     </g>
    </g>
    <g id="ytick_4">
     <g id="line2d_12">
      <g>
       <use xlink:href="#mba4d15b678" x="26.685" y="170.30153" style="stroke: #000000; stroke-width: 2"/>
      </g>
     </g>
    </g>
    <g id="ytick_5">
     <g id="line2d_13">
      <g>
       <use xlink:href="#mba4d15b678" x="26.685" y="224.668707" style="stroke: #000000; stroke-width: 2"/>
      </g>
     </g>
    </g>
    <g id="text_2">
     <!-- y (pixels) -->
     <g transform="translate(19.3575 174.028138) rotate(-90) scale(0.16 -0.16)">
      <defs>
       <path id="DejaVuSans-79" d="M 2059 -325 
Q 1816 -950 1584 -1140 
Q 1353 -1331 966 -1331 
L 506 -1331 
L 506 -850 
L 844 -850 
Q 1081 -850 1212 -737 
Q 1344 -625 1503 -206 
L 1606 56 
L 191 3500 
L 800 3500 
L 1894 763 
L 2988 3500 
L 3597 3500 
L 2059 -325 
z
" transform="scale(0.015625)"/>
      </defs>
      <use xlink:href="#DejaVuSans-79"/>
      <use xlink:href="#DejaVuSans-20" transform="translate(59.179688 0)"/>
      <use xlink:href="#DejaVuSans-28" transform="translate(90.966797 0)"/>
      <use xlink:href="#DejaVuSans-70" transform="translate(129.980469 0)"/>
      <use xlink:href="#DejaVuSans-69" transform="translate(193.457031 0)"/>
      <use xlink:href="#DejaVuSans-78" transform="translate(221.240234 0)"/>
      <use xlink:href="#DejaVuSans-65" transform="translate(277.294922 0)"/>
      <use xlink:href="#DejaVuSans-6c" transform="translate(338.818359 0)"/>
      <use xlink:href="#DejaVuSans-73" transform="translate(366.601562 0)"/>
      <use xlink:href="#DejaVuSans-29" transform="translate(418.701172 0)"/>
     </g>
    </g>
   </g>
   <g id="line2d_14">
    <path d="M 212.077072 142.030598 
L 210.989729 140.943255 
L 183.262469 138.224896 
L 258.832844 129.526147 
L 187.068171 137.681224 
L 249.046752 142.030598 
L 251.765111 144.205285 
L 265.356905 124.633102 
L 269.162608 130.613491 
L 187.611843 143.117942 
L 187.068171 143.117942 
L 243.066363 149.098331 
L 269.162608 133.33185 
L 256.658157 142.030598 
L 215.339103 148.554659 
L 266.987921 136.050209 
L 253.396127 152.360362 
L 246.328394 150.185675 
L 256.114485 140.943255 
L 263.72589 128.438804 
L 218.601134 148.010987 
L 253.396127 148.554659 
L 190.330202 143.661613 
L 226.212538 145.292629 
L 274.599325 131.700834 
L 265.900577 136.59388 
L 272.96831 132.244506 
L 276.230341 131.700834 
L 261.007531 145.292629 
L 258.289172 147.467316 
L 270.249951 126.807789 
L 257.201829 147.467316 
L 222.406836 145.292629 
L 274.055654 133.33185 
L 256.658157 148.554659 
L 271.880967 130.613491 
L 271.337295 131.700834 
L 265.900577 127.35146 
L 265.356905 126.264117 
L 214.795431 144.748957 
L 266.444249 132.244506 
L 248.503081 149.098331 
L 266.987921 132.788178 
L 268.618936 131.700834 
L 216.970118 145.292629 
L 272.96831 130.069819 
L 272.424638 129.526147 
L 271.337295 129.526147 
L 221.863164 144.748957 
" clip-path="url(#pdf47171183)" style="fill: none; stroke: #4169e1; stroke-opacity: 0.5; stroke-width: 2; stroke-linecap: square"/>
   </g>
   <g id="patch_3">
    <path d="M 26.685 267.618776 
L 26.685 7.2 
" style="fill: none; stroke: #000000; stroke-width: 2; stroke-linejoin: miter; stroke-linecap: square"/>
   </g>
   <g id="patch_4">
    <path d="M 417.585 267.618776 
L 417.585 7.2 
" style="fill: none; stroke: #000000; stroke-width: 2; stroke-linejoin: miter; stroke-linecap: square"/>
   </g>
   <g id="patch_5">
    <path d="M 26.685 267.618776 
L 417.585 267.618776 
" style="fill: none; stroke: #000000; stroke-width: 2; stroke-linejoin: miter; stroke-linecap: square"/>
   </g>
   <g id="patch_6">
    <path d="M 26.685 7.2 
L 417.585 7.2 
" style="fill: none; stroke: #000000; stroke-width: 2; stroke-linejoin: miter; stroke-linecap: square"/>
   </g>
  </g>
 </g>
 <defs>
  <clipPath id="pdf47171183">
   <rect x="26.685" y="7.2" width="390.9" height="260.418776"/>
  </clipPath>
 </defs>
</svg>
